:SAMPLES-PER-SECOND 30
:FULLY-SPECIFIED
:DEGREES
123
root  42.2812 20.8479 2.88011 -21.4922 81.3033 -16.0608
RightUpLeg  -40.9573 1.35096 -0.414147
RightLeg  131.897 3.44687 9.19906
RightFoot  -15.1956 0.139866 6.89046
RightToes  1.80444e-009 -3.18055e-015 8.94531e-016
Spine  60.1639 3.02756 -3.04884
Spine1  12.5403 3.10465 -6.39958
HEad  -37.6561 2.30735 3.89906
LeftShoulder1  0 -2.69403e-036 -1.28585e-037
LeftArm  -23.7509 -56.2997 -50.4142
LeftForeArm  -134.102 -49.785 168.55
LeftHand  -0.231381 3.64861 20.7469
RightShoulder  -2.48481e-017 0 -8.08114e-019
RightArm  4.01829 47.1527 77.6513
RightForeArm  -84.1252 46.0875 -154.49
RightHand  4.07798 -16.6311 -25.6767
LeftUpLeg  -81.3097 -2.27435 -0.705586
LeftLeg  111.292 -16.409 6.02317
LeftFoot  -12.9367 -0.0271147 -2.72217
LeftToes  -1.10049e-010 -1.44524e-010 4.8374e-011
124
root  43.3433 21.7788 2.88925 -37.2115 81.1497 -32.1367
RightUpLeg  -44.6122 -0.651122 1.86691
RightLeg  129.785 5.06408 7.97496
RightFoot  -16.2452 0.123701 4.50272
RightToes  1.80444e-009 -3.18055e-015 8.94531e-016
Spine  59.3502 2.52707 -2.71515
Spine1  14.5769 2.95629 -5.77472
HEad  -37.3609 3.05986 3.94824
LeftShoulder1  0 -2.69403e-036 -1.28585e-037
LeftArm  -24.6331 -56.4572 -49.1851
LeftForeArm  -134.336 -49.8556 168.514
LeftHand  -0.0493138 4.02704 19.0184
RightShoulder  -2.48481e-017 0 -8.08114e-019
RightArm  4.04658 46.9258 77.0924
RightForeArm  -84.1308 46.268 -154.25
RightHand  4.13284 -16.6067 -26.3089
LeftUpLeg  -78.1283 -2.01148 1.25711
LeftLeg  111.245 -16.0666 5.28523
LeftFoot  -12.9128 -0.0233005 -3.58434
LeftToes  -1.10049e-010 -1.44524e-010 4.8374e-011
125
root  44.4924 22.611 2.86073 -50.212 80.5672 -45.069
RightUpLeg  -49.3736 -2.6461 4.61159
RightLeg  126.014 8.34763 4.59119
RightFoot  -20.5803 0.167642 2.53487
RightToes  1.80444e-009 -3.18055e-015 8.94531e-016
Spine  58.9029 1.67356 -1.39392
Spine1  15.2677 3.26822 -6.03789
HEad  -35.222 2.46268 4.46135
LeftShoulder1  0 -2.69403e-036 -1.28585e-037
LeftArm  -19.484 -56.3773 -54.061
LeftForeArm  -133.473 -49.5319 168.693
LeftHand  0.0703656 4.25941 17.4585
RightShoulder  -2.48481e-017 0 -8.08114e-019
RightArm  2.45417 45.1437 74.9808
RightForeArm  -84.8313 46.4775 -154.011
RightHand  4.09866 -16.4504 -26.5161
LeftUpLeg  -74.4954 -2.01838 3.01327
LeftLeg  111.277 -15.7892 4.65936
LeftFoot  -12.7805 -0.016182 -4.03473
LeftToes  -1.10049e-010 -1.44524e-010 4.8374e-011
126
root  45.6355 23.1988 2.80417 -58.456 79.9273 -52.4656
RightUpLeg  -55.2089 -3.9507 7.28872
RightLeg  121.261 10.9165 1.21474
RightFoot  -23.6059 0.121208 1.2393
RightToes  1.80444e-009 -3.18055e-015 8.94531e-016
Spine  58.2006 0.910091 -0.515544
Spine1  16.6729 3.19682 -5.92983
HEad  -32.9511 2.21062 4.84147
LeftShoulder1  0 -2.69403e-036 -1.28585e-037
LeftArm  -15.4626 -55.766 -57.9876
LeftForeArm  -132.972 -49.3927 168.76
LeftHand  0.0753905 4.25387 17.257
RightShoulder  -2.48481e-017 0 -8.08114e-019
RightArm  2.27744 43.4589 74.0835
RightForeArm  -85.1541 46.6074 -153.855
RightHand  4.10555 -16.4384 -26.629
LeftUpLeg  -70.4958 -2.04944 4.43568
LeftLeg  111.963 -15.302 3.39448
LeftFoot  -12.456 0.000895537 -4.57123
LeftToes  -1.10049e-010 -1.44524e-010 4.8374e-011
127
root  46.7309 23.5047 2.73142 -63.8641 79.3184 -56.2925
RightUpLeg  -61.5827 -4.51255 10.1931
RightLeg  116.122 11.6019 -0.0573245
RightFoot  -24.7334 -8.09486e-005 -0.0776513
RightToes  1.80444e-009 -3.18055e-015 8.94531e-016
Spine  57.5577 0.227633 -0.217867
Spine1  19.0348 2.49784 -5.08264
HEad  -31.8749 2.95472 4.52759
LeftShoulder1  0 -2.69403e-036 -1.28585e-037
LeftArm  -16.0787 -55.2151 -57.7447
LeftForeArm  -132.914 -49.5937 168.606
LeftHand  0.0177255 4.10777 17.7379
RightShoulder  -2.48481e-017 0 -8.08114e-019
RightArm  3.99251 43.0019 74.7322
RightForeArm  -84.5003 46.7515 -153.617
RightHand  4.17564 -16.5743 -26.8487
LeftUpLeg  -66.2475 -1.77872 5.69639
LeftLeg  113.449 -14.4771 1.33673
LeftFoot  -12.3823 0.0117734 -5.43655
LeftToes  -1.10049e-010 -1.44524e-010 4.8374e-011
128
root  47.8149 23.4857 2.68089 -69.5299 78.8467 -60.3711
RightUpLeg  -68.0928 -5.07623 13.9449
RightLeg  110.157 11.2795 0.392233
RightFoot  -24.4824 -0.0360581 -0.45786
RightToes  1.80444e-009 -3.18055e-015 8.94531e-016
Spine  58.1209 -0.778232 1.22513
Spine1  18.2048 2.44509 -5.38797
HEad  -30.0645 2.37276 5.17484
LeftShoulder1  0 -2.69403e-036 -1.28585e-037
LeftArm  -12.5937 -54.6672 -61.8966
LeftForeArm  -132.531 -49.4882 168.657
LeftHand  0.144693 4.37628 16.0487
RightShoulder  -2.48481e-017 0 -8.08114e-019
RightArm  2.86028 41.2271 72.8003
RightForeArm  -85.1744 46.8312 -153.55
RightHand  4.08017 -16.423 -26.4255
LeftUpLeg  -62.5578 -1.31813 6.84657
LeftLeg  115.716 -13.5072 -0.844634
LeftFoot  -12.9466 -0.015346 -6.16959
LeftToes  -1.10049e-010 -1.44524e-010 4.8374e-011
129
root  48.8911 23.1559 2.68426 -76.5934 78.6404 -66.0883
RightUpLeg  -74.1993 -6.07059 18.4391
RightLeg  103.042 11.0436 0.831616
RightFoot  -22.8128 0.0410207 0.40796
RightToes  1.80444e-009 -3.18055e-015 8.94531e-016
Spine  58.144 -1.70075 2.3128
Spine1  17.7113 1.95582 -4.8626
HEad  -29.0576 2.3341 5.60518
LeftShoulder1  0 -2.69403e-036 -1.28585e-037
LeftArm  -11.0677 -54.3305 -64.1086
LeftForeArm  -131.688 -49.3991 168.661
LeftHand  0.229647 4.53568 14.6722
RightShoulder  -2.48481e-017 0 -8.08114e-019
RightArm  2.08924 40.2881 71.2125
RightForeArm  -85.9586 46.8211 -153.614
RightHand  4.08324 -16.4525 -26.3533
LeftUpLeg  -59.4223 -0.82232 7.79035
LeftLeg  118.573 -12.5193 -2.70974
LeftFoot  -14.7089 -0.114974 -5.8906
LeftToes  -1.10049e-010 -1.44524e-010 4.8374e-011
130
root  49.9037 22.6094 2.74341 -84.4743 78.6793 -72.3604
RightUpLeg  -78.6019 -7.03369 22.3487
RightLeg  95.119 10.9287 1.45971
RightFoot  -21.1062 0.12791 1.73902
RightToes  1.80444e-009 -3.18055e-015 8.94531e-016
Spine  58.251 -2.37733 2.7479
Spine1  17.4631 1.28748 -3.94574
HEad  -28.5154 2.5465 6.1732
LeftShoulder1  0 -2.69403e-036 -1.28585e-037
LeftArm  -10.639 -54.3673 -64.8679
LeftForeArm  -131.49 -49.5281 168.551
LeftHand  0.28107 4.68275 14.2187
RightShoulder  -2.48481e-017 0 -8.08114e-019
RightArm  1.34706 39.8817 69.8993
RightForeArm  -87.0483 46.6714 -153.89
RightHand  4.17933 -16.6455 -26.6333
LeftUpLeg  -55.7751 -0.25186 8.68791
LeftLeg  121.695 -11.286 -4.56842
LeftFoot  -18.3209 -0.236048 -4.21318
LeftToes  -1.10049e-010 -1.44524e-010 4.8374e-011
131
root  50.9006 21.9072 2.85837 -93.6093 79.0413 -79.6397
RightUpLeg  -80.3317 -7.49014 23.757
RightLeg  87.3417 11.0383 2.95505
RightFoot  -19.897 0.205254 3.36937
RightToes  1.80444e-009 -3.18055e-015 8.94531e-016
Spine  58.7753 -2.84233 2.56061
Spine1  17.0294 0.621826 -3.06308
HEad  -28.3156 2.52086 6.68647
LeftShoulder1  0 -2.69403e-036 -1.28585e-037
LeftArm  -10.2587 -54.584 -65.2372
LeftForeArm  -131.833 -49.798 168.373
LeftHand  0.303382 4.78628 14.431
RightShoulder  -2.48481e-017 0 -8.08114e-019
RightArm  0.792015 39.5051 68.9142
RightForeArm  -87.5554 46.5927 -154.03
RightHand  4.16552 -16.6874 -26.3518
LeftUpLeg  -51.3892 0.171134 9.59609
LeftLeg  124.971 -9.57305 -6.66391
LeftFoot  -23.2619 -0.21351 -1.75534
LeftToes  -1.10049e-010 -1.44524e-010 4.8374e-011
132
root  51.9929 21.0234 3.04968 -107.194 79.7386 -91.9955
RightUpLeg  -80.5079 -7.48943 22.1133
RightLeg  81.4708 11.1764 2.82271
RightFoot  -17.118 0.137525 4.14092
RightToes  1.80444e-009 -3.18055e-015 8.94531e-016
Spine  58.7315 -3.17277 1.87007
Spine1  16.7615 -0.423627 -1.80704
HEad  -28.5777 2.26958 6.97404
LeftShoulder1  0 -2.69403e-036 -1.28585e-037
LeftArm  -9.43274 -54.8608 -65.9672
LeftForeArm  -131.323 -49.9873 168.191
LeftHand  0.271992 4.68581 14.599
RightShoulder  -2.48481e-017 0 -8.08114e-019
RightArm  0.0986391 39.3155 68.0984
RightForeArm  -87.7267 46.5397 -154.112
RightHand  4.14511 -16.6452 -26.296
LeftUpLeg  -47.7677 -0.222111 10.1023
LeftLeg  128.646 -7.51941 -8.59784
LeftFoot  -27.2221 -0.0536125 0.202451
LeftToes  -1.10049e-010 -1.44524e-010 4.8374e-011
133
root  53.1781 19.9263 3.31555 -126.912 79.8212 -111.239
RightUpLeg  -81.2564 -7.66894 19.1407
RightLeg  79.7175 10.7259 -0.641659
RightFoot  -11.439 -0.0224723 2.03817
RightToes  1.80444e-009 -3.18055e-015 8.94531e-016
Spine  58.1547 -3.50672 1.12825
Spine1  16.3476 -1.7813 -0.114249
HEad  -29.0614 1.68431 7.67621
LeftShoulder1  0 -2.69403e-036 -1.28585e-037
LeftArm  -7.22055 -55.2701 -68.1787
LeftForeArm  -129.34 -50.103 167.956
LeftHand  0.251172 4.5359 13.8804
RightShoulder  -2.48481e-017 0 -8.08114e-019
RightArm  -1.53624 39.2086 66.8185
RightForeArm  -87.8781 46.4253 -154.276
RightHand  4.16408 -16.6255 -26.5531
LeftUpLeg  -45.8294 -1.79294 10.4009
LeftLeg  132.984 -5.2923 -9.99622
LeftFoot  -28.3432 0.0609163 1.10989
LeftToes  -1.10049e-010 -1.44524e-010 4.8374e-011
134
root  54.2994 18.7356 3.58719 -141.979 78.306 -124.946
RightUpLeg  -82.4265 -8.04465 17.3843
RightLeg  82.288 10.4186 -5.45999
RightFoot  -5.18634 0.137262 -1.71089
RightToes  1.80444e-009 -3.18055e-015 8.94531e-016
Spine  59.9702 -4.11016 1.53095
Spine1  13.7911 -2.35624 1.25492
HEad  -29.5038 0.455378 8.86646
LeftShoulder1  0 -2.69403e-036 -1.28585e-037
LeftArm  -4.54724 -55.6903 -71.4034
LeftForeArm  -128.251 -50.0125 167.947
LeftHand  0.173775 4.26266 14.0554
RightShoulder  -2.48481e-017 0 -8.08114e-019
RightArm  -3.96791 38.8926 64.977
RightForeArm  -87.8919 46.2631 -154.493
RightHand  4.13498 -16.5917 -26.3823
LeftUpLeg  -43.6495 -4.11611 12.6065
LeftLeg  137.555 -2.49754 -11.2673
LeftFoot  -27.5988 0.15173 1.88545
LeftToes  -1.10049e-010 -1.44524e-010 4.8374e-011
